HIERARCHY
ROOT Hips
{
	OFFSET 0.000000 0.000000 0.000000
	CHANNELS 6 Xposition Yposition Zposition Xrotation Yrotation Zrotation
	JOINT LeftUpLeg_virtual
	{
		OFFSET 0.000000 0.000000 0.000000
		CHANNELS 3 Xrotation Yrotation Zrotation
		JOINT LeftUpLeg
		{
			OFFSET 11.394100 -6.187798 -0.413800
			CHANNELS 3 Xrotation Yrotation Zrotation
			JOINT LeftLeg
			{
				OFFSET 0.430247 -32.302673 3.732800
				CHANNELS 3 Xrotation Yrotation Zrotation
				JOINT LeftFoot
				{
					OFFSET -0.430247 -48.264931 -6.423300
					CHANNELS 3 Xrotation Yrotation Zrotation
					JOINT LeftToeBase
					{
						OFFSET 4.230900 -16.068199 23.438400
						CHANNELS 3 Xrotation Yrotation Zrotation
						JOINT LeftToe_End
						{
							OFFSET 4.510700 0.695400 19.974600
							CHANNELS 3 Xrotation Yrotation Zrotation
							End Site
							{
								OFFSET 0 0 0
							}
						}
					}
				}
			}
		}
	}
	JOINT RightUpLeg_virtual
	{
		OFFSET 0.000000 0.000000 0.000000
		CHANNELS 3 Xrotation Yrotation Zrotation
		JOINT RightUpLeg
		{
			OFFSET -11.333700 -6.187798 -0.413800
			CHANNELS 3 Xrotation Yrotation Zrotation
			JOINT RightLeg
			{
				OFFSET -0.430392 -32.302628 3.733000
				CHANNELS 3 Xrotation Yrotation Zrotation
				JOINT RightFoot
				{
					OFFSET 0.430392 -48.264973 -6.423500
					CHANNELS 3 Xrotation Yrotation Zrotation
					JOINT RightToeBase
					{
						OFFSET -4.230900 -16.068199 23.438400
						CHANNELS 3 Xrotation Yrotation Zrotation
						JOINT RightToe_End
						{
							OFFSET -4.510700 0.695400 19.974600
							CHANNELS 3 Xrotation Yrotation Zrotation
							End Site
							{
								OFFSET 0 0 0
							}
						}
					}
				}
			}
		}
	}
	JOINT Spine_virtual
	{
		OFFSET 0.000000 0.000000 0.000000
		CHANNELS 3 Xrotation Yrotation Zrotation
		JOINT Spine
		{
			OFFSET -0.002400 12.777504 0.315300
			CHANNELS 3 Xrotation Yrotation Zrotation
			JOINT Spine1
			{
				OFFSET -0.002067 5.816869 0.032633
				CHANNELS 3 Xrotation Yrotation Zrotation
				JOINT Spine1_split
				{
					OFFSET -0.002067 5.816869 0.032633
					CHANNELS 3 Xrotation Yrotation Zrotation
					JOINT Spine2
					{
						OFFSET -0.002067 5.816869 0.032633
						CHANNELS 3 Xrotation Yrotation Zrotation
						JOINT Neck_virtual
						{
							OFFSET 0.000000 0.000000 0.000000
							CHANNELS 3 Xrotation Yrotation Zrotation
							JOINT Neck
							{
								OFFSET -0.003700 21.199493 -0.826900
								CHANNELS 3 Xrotation Yrotation Zrotation
								JOINT Head
								{
									OFFSET 0.000000 20.442200 4.834800
									CHANNELS 3 Xrotation Yrotation Zrotation
									JOINT HeadTop_End
									{
										OFFSET 0.000000 34.668396 4.968400
										CHANNELS 3 Xrotation Yrotation Zrotation
										End Site
										{
											OFFSET 0 0 0
										}
									}
								}
							}
						}
						JOINT LeftShoulder_virtual
						{
							OFFSET 0.000000 0.000000 0.000000
							CHANNELS 3 Xrotation Yrotation Zrotation
							JOINT LeftShoulder
							{
								OFFSET 3.288150 8.794197 -1.372250
								CHANNELS 3 Xrotation Yrotation Zrotation
								JOINT LeftShoulder_split
								{
									OFFSET 3.288150 8.794197 -1.372250
									CHANNELS 3 Xrotation Yrotation Zrotation
									JOINT LeftArm
									{
										OFFSET 11.953299 -2.279007 -0.146200
										CHANNELS 3 Xrotation Yrotation Zrotation
										JOINT LeftForeArm
										{
											OFFSET 18.448900 0.000000 0.000000
											CHANNELS 3 Xrotation Yrotation Zrotation
											JOINT LeftHand
											{
												OFFSET 29.527798 0.000000 0.000000
												CHANNELS 3 Xrotation Yrotation Zrotation
												End Site
												{
													OFFSET 0 0 0
												}
											}
										}
									}
								}
							}
						}
						JOINT RightShoulder_virtual
						{
							OFFSET 0.000000 0.000000 0.000000
							CHANNELS 3 Xrotation Yrotation Zrotation
							JOINT RightShoulder
							{
								OFFSET -3.249400 8.794197 -1.372250
								CHANNELS 3 Xrotation Yrotation Zrotation
								JOINT RightShoulder_split
								{
									OFFSET -3.249400 8.794197 -1.372250
									CHANNELS 3 Xrotation Yrotation Zrotation
									JOINT RightArm
									{
										OFFSET -11.953299 -2.279007 -0.146200
										CHANNELS 3 Xrotation Yrotation Zrotation
										JOINT RightForeArm
										{
											OFFSET -18.448900 0.000000 0.000000
											CHANNELS 3 Xrotation Yrotation Zrotation
											JOINT RightHand
											{
												OFFSET -29.527802 0.000000 0.000000
												CHANNELS 3 Xrotation Yrotation Zrotation
												End Site
												{
													OFFSET 0 0 0
												}
											}
										}
									}
								}
							}
						}
					}
				}
			}
		}
	}
}
MOTION
Frames: 11
Frame Time: 0.03333333
0.834171 100.278175 -0.630497 0.000000 0.000000 0.000000 3.659436 -30.440217 2.293022 -17.100823 14.609015 12.204384 17.415983 14.437860 -2.888646 -2.703784 -4.702434 -5.192455 2.755538 0.343952 -0.545556 0.000000 0.000000 0.000000 4.278190 -30.030040 2.228170 -9.973941 -1.196202 -9.372652 10.062872 8.700379 0.769610 -4.081137 -1.214938 4.717494 -2.416135 -0.471696 0.203318 0.000000 0.000000 0.000000 3.819386 -29.157053 1.167557 7.323540 -0.054847 -1.098234 1.307949 -0.778062 2.364589 0.483643 0.182264 0.664620 0.000000 0.000000 0.000000 1.070938 -0.384596 2.489426 -4.560907 17.682400 -7.129368 -5.936313 15.470119 0.336326 0.000000 0.000000 0.000000 1.305379 -0.607200 2.629070 0.925731 -10.313644 0.264515 1.453174 -0.153120 0.225607 -59.851780 1.383654 -39.452433 9.336437 -59.941890 11.744334 0.000000 0.000000 0.000000 0.830198 -0.453954 2.670994 4.822796 6.030256 7.257929 -0.791105 -0.181928 -1.408498 0.072103 0.531042 63.373644 12.333282 23.517243 -3.934139 0.000000 0.000000 0.000000 
0.822500 100.299690 -0.578465 0.000000 0.000000 0.000000 3.782629 -30.420580 2.331479 -17.151737 14.567284 12.215452 17.371628 14.419899 -2.850061 -2.712019 -4.685663 -5.218696 2.718861 0.347241 -0.550563 0.000000 0.000000 0.000000 4.398754 -30.026919 2.255870 -10.020921 -1.140720 -9.363986 10.145307 8.750715 0.755592 -4.026524 -1.178630 4.757080 -2.435235 -0.495272 0.205644 0.000000 0.000000 0.000000 3.959256 -29.101479 1.206059 7.284903 -0.045830 -1.121151 1.284821 -0.793867 2.371439 0.562950 0.136399 0.734734 0.000000 0.000000 0.000000 1.062863 -0.389880 2.510959 -4.499806 17.860907 -7.206061 -5.900880 15.497614 0.370822 0.000000 0.000000 0.000000 1.276884 -0.610263 2.642922 0.910374 -10.207763 0.140310 1.549914 -0.226079 0.299280 -59.793470 1.453757 -39.373319 9.494030 -59.978213 11.819844 0.000000 0.000000 0.000000 0.819408 -0.458005 2.686409 4.769468 6.076073 7.396570 -0.974225 -0.235169 -1.385263 0.154935 0.586055 63.335777 12.324421 23.282771 -3.923441 0.000000 0.000000 0.000000 
0.795618 100.306984 -0.554012 0.000000 0.000000 0.000000 3.975769 -30.345615 2.387273 -17.290371 14.444984 12.221540 17.345515 14.415039 -2.812136 -2.732625 -4.646278 -5.274471 2.688164 0.347053 -0.530370 0.000000 0.000000 0.000000 4.580963 -30.002309 2.306637 -10.121040 -1.092445 -9.347874 10.249876 8.799209 0.747613 -4.050959 -1.149121 4.778912 -2.404967 -0.517755 0.213500 0.000000 0.000000 0.000000 4.200554 -29.049317 1.280011 7.252408 -0.025444 -1.149121 1.246635 -0.786695 2.375643 0.600117 0.060296 0.761512 0.000000 0.000000 0.000000 1.053909 -0.368725 2.523179 -4.388952 18.211016 -7.327839 -5.949425 15.695326 0.488500 0.000000 0.000000 0.000000 1.250763 -0.588290 2.647149 0.889835 -10.027063 0.019169 1.635885 -0.220566 0.394908 -59.766204 1.506900 -39.309327 9.585025 -60.130745 11.826147 0.000000 0.000000 0.000000 0.802199 -0.439780 2.691654 4.725355 6.136765 7.569418 -1.080361 -0.299827 -1.439716 0.250569 0.627672 63.294885 12.287447 23.047821 -3.925447 0.000000 0.000000 0.000000 
0.748594 100.293976 -0.541924 0.000000 0.000000 0.000000 4.217752 -30.189067 2.450881 -17.509332 14.261753 12.225111 17.341377 14.424668 -2.784481 -2.767474 -4.590998 -5.348641 2.679131 0.343510 -0.492486 0.000000 0.000000 0.000000 4.804370 -29.937108 2.371532 -10.269385 -1.063881 -9.328708 10.341232 8.842676 0.745222 -4.143805 -1.122522 4.798149 -2.335582 -0.532254 0.217222 0.000000 0.000000 0.000000 4.512346 -28.990291 1.379797 7.220250 0.002400 -1.174126 1.193343 -0.756831 2.375389 0.537109 -0.026622 0.740802 0.000000 0.000000 0.000000 1.043134 -0.326426 2.528032 -4.216363 18.736816 -7.528268 -6.097866 16.075415 0.657207 0.000000 0.000000 0.000000 1.230381 -0.546413 2.642209 0.871567 -9.795716 -0.074913 1.694899 -0.094307 0.519006 -59.794085 1.540591 -39.296725 9.587177 -60.304082 11.746947 0.000000 0.000000 0.000000 0.780168 -0.402969 2.687252 4.689120 6.221311 7.741682 -1.091346 -0.335911 -1.565743 0.342752 0.666298 63.283157 12.229546 22.805966 -3.936118 0.000000 0.000000 0.000000 
0.683802 100.264084 -0.534641 0.000000 0.000000 0.000000 4.489275 -29.939386 2.517404 -17.789885 14.022651 12.232140 17.363087 14.449132 -2.777115 -2.811729 -4.527962 -5.431348 2.686716 0.339166 -0.436436 0.000000 0.000000 0.000000 5.060412 -29.793982 2.446205 -10.439920 -1.066071 -9.308207 10.402898 8.878515 0.747351 -4.291907 -1.095512 4.822470 -2.260768 -0.536625 0.216163 0.000000 0.000000 0.000000 4.869043 -28.887305 1.493162 7.177126 0.033517 -1.191818 1.135200 -0.709405 2.369125 0.446328 -0.146203 0.736157 0.000000 0.000000 0.000000 1.031389 -0.269755 2.525049 -3.964652 19.443930 -7.851460 -6.355654 16.650896 0.844717 0.000000 0.000000 0.000000 1.217959 -0.490287 2.631957 0.862533 -9.539509 -0.130235 1.726752 0.106710 0.642847 -59.905397 1.593019 -39.362175 9.498171 -60.421643 11.580439 0.000000 0.000000 0.000000 0.760653 -0.353775 2.674804 4.659430 6.331651 7.875972 -1.040101 -0.321619 -1.721092 0.435743 0.685843 63.316298 12.157829 22.581843 -3.950658 0.000000 0.000000 0.000000 
0.592248 100.222801 -0.531700 0.000000 0.000000 0.000000 4.773207 -29.587621 2.586018 -18.091044 13.741640 12.243514 17.394750 14.478293 -2.796502 -2.851897 -4.473638 -5.516590 2.695703 0.333789 -0.362422 0.000000 0.000000 0.000000 5.331157 -29.531597 2.522995 -10.610084 -1.114435 -9.283223 10.434796 8.897347 0.751244 -4.475857 -1.077271 4.840538 -2.196242 -0.531301 0.213385 0.000000 0.000000 0.000000 5.243017 -28.696831 1.608716 7.111623 0.066994 -1.201100 1.081056 -0.651963 2.355251 0.378807 -0.309625 0.764013 0.000000 0.000000 0.000000 1.019170 -0.205074 2.514477 -3.613123 20.334455 -8.343370 -6.726879 17.445077 1.013428 0.000000 0.000000 0.000000 1.218715 -0.426759 2.619940 0.866629 -9.287406 -0.133722 1.747479 0.266162 0.713790 -60.148661 1.667252 -39.540020 9.341937 -60.463853 11.349905 0.000000 0.000000 0.000000 0.750247 -0.298417 2.655297 4.635541 6.467270 7.941838 -0.937831 -0.281942 -1.864617 0.517310 0.642312 63.402010 12.082204 22.397642 -3.967050 0.000000 0.000000 0.000000 
0.476618 100.175385 -0.528229 0.000000 0.000000 0.000000 5.054273 -29.129206 2.659344 -18.390585 13.412408 12.262155 17.419639 14.500744 -2.843187 -2.877070 -4.443179 -5.606478 2.703045 0.327083 -0.279025 0.000000 0.000000 0.000000 5.600184 -29.141176 2.594550 -10.777500 -1.230665 -9.247642 10.471739 8.878608 0.750866 -4.680356 -1.086510 4.830844 -2.138348 -0.520337 0.216604 0.000000 0.000000 0.000000 5.620498 -28.394690 1.719581 7.021347 0.103027 -1.206541 1.042859 -0.592124 2.329988 0.363993 -0.450897 0.812857 0.000000 0.000000 0.000000 1.015692 -0.138743 2.497236 -3.142647 21.406904 -9.028561 -7.205973 18.454239 1.143755 0.000000 0.000000 0.000000 1.231622 -0.360894 2.605432 0.883550 -9.063750 -0.098958 1.774852 0.335705 0.760195 -60.542708 1.754555 -39.837403 9.181168 -60.469051 11.110328 0.000000 0.000000 0.000000 0.745974 -0.241558 2.628400 4.619146 6.622696 7.934919 -0.798522 -0.253806 -1.962785 0.596153 0.489628 63.522597 12.011862 22.290741 -3.979981 0.000000 0.000000 0.000000 
0.344476 100.124817 -0.521374 0.000000 0.000000 0.000000 5.329856 -28.566307 2.733921 -18.675400 13.035825 12.293762 17.428773 14.498251 -2.916388 -2.889979 -4.452660 -5.702184 2.727964 0.317340 -0.193902 0.000000 0.000000 0.000000 5.855114 -28.629628 2.657904 -10.938857 -1.435002 -9.202291 10.555833 8.813969 0.745902 -4.898218 -1.136103 4.780000 -2.096348 -0.512423 0.228658 0.000000 0.000000 0.000000 5.978879 -27.969078 1.821801 6.907466 0.141227 -1.213338 1.027505 -0.534479 2.293667 0.381980 -0.543203 0.879958 0.000000 0.000000 0.000000 1.029185 -0.074844 2.474995 -2.532092 22.639862 -9.914750 -7.776868 19.656207 1.227635 0.000000 0.000000 0.000000 1.253940 -0.293888 2.590595 0.908644 -8.875630 -0.046394 1.794755 0.385876 0.746265 -61.044843 1.859420 -40.203235 9.049674 -60.473989 10.894154 0.000000 0.000000 0.000000 0.742167 -0.190375 2.595575 4.607605 6.797012 7.861994 -0.638727 -0.257866 -2.024095 0.717315 0.217133 63.636326 11.960802 22.261326 -3.986162 0.000000 0.000000 0.000000 
0.201529 100.070488 -0.502373 0.000000 0.000000 0.000000 5.595143 -27.882075 2.804764 -18.940861 12.624378 12.336617 17.429847 14.461889 -3.015786 -2.906655 -4.516528 -5.798458 2.780335 0.302290 -0.118397 0.000000 0.000000 0.000000 6.087220 -28.007766 2.711313 -11.097311 -1.738156 -9.157392 10.723770 8.703361 0.738201 -5.136051 -1.223332 4.685898 -2.059398 -0.511948 0.245788 0.000000 0.000000 0.000000 6.307316 -27.411626 1.912818 6.780334 0.184775 -1.224908 1.033788 -0.479901 2.250420 0.414318 -0.611423 0.891968 0.000000 0.000000 0.000000 1.052305 -0.014580 2.449387 -1.781759 23.980545 -10.986795 -8.408895 20.985917 1.273661 0.000000 0.000000 0.000000 1.279852 -0.225114 2.578208 0.937577 -8.720664 0.006160 1.840770 0.465573 0.696065 -61.551472 1.979470 -40.543173 8.970944 -60.486004 10.721971 0.000000 0.000000 0.000000 0.738316 -0.144110 2.559474 4.594551 6.993597 7.730965 -0.462683 -0.279119 -2.055754 0.924965 -0.135457 63.711233 11.937495 22.281597 -3.992326 0.000000 0.000000 0.000000 
0.050627 100.006584 -0.477982 0.000000 0.000000 0.000000 5.848274 -27.081592 2.865905 -19.203536 12.162945 12.383955 17.436040 14.391740 -3.134320 -2.932203 -4.629349 -5.903526 2.855505 0.283453 -0.051748 0.000000 0.000000 0.000000 6.296728 -27.265430 2.750995 -11.259127 -2.134712 -9.122545 10.987961 8.551639 0.730507 -5.406618 -1.331946 4.548937 -2.005704 -0.515563 0.266100 0.000000 0.000000 0.000000 6.607643 -26.730666 1.993181 6.647913 0.239583 -1.243253 1.050740 -0.426727 2.205225 0.441826 -0.666166 0.879490 0.000000 0.000000 0.000000 1.078950 0.046209 2.426000 -0.914353 25.369775 -12.218604 -9.063210 22.364847 1.306169 0.000000 0.000000 0.000000 1.308206 -0.148475 2.568899 0.963664 -8.584098 0.019523 1.901917 0.574787 0.658624 -61.958053 2.143986 -40.745312 8.950358 -60.519205 10.597183 0.000000 0.000000 0.000000 0.735117 -0.096447 2.527034 4.578269 7.224710 7.561536 -0.305090 -0.269337 -2.054291 1.241483 -0.506884 63.728165 11.946139 22.329804 -4.006303 0.000000 0.000000 0.000000 
-0.111741 99.934052 -0.456779 0.000000 0.000000 0.000000 6.082212 -26.169482 2.911331 -19.478940 11.658187 12.437054 17.473349 14.298912 -3.270614 -2.962651 -4.777246 -6.012632 2.940185 0.260250 0.009529 0.000000 0.000000 0.000000 6.488005 -26.407509 2.776582 -11.415243 -2.608502 -9.099457 11.330760 8.367502 0.724212 -5.714430 -1.448214 4.377607 -1.907591 -0.518927 0.285575 0.000000 0.000000 0.000000 6.882703 -25.932929 2.058190 6.513554 0.312210 -1.268689 1.072330 -0.366275 2.165329 0.481875 -0.726944 0.861770 0.000000 0.000000 0.000000 1.100185 0.116007 2.409702 0.038598 26.741140 -13.575403 -9.717890 23.714381 1.349479 0.000000 0.000000 0.000000 1.337557 -0.060025 2.565472 0.978620 -8.437620 -0.038121 1.975021 0.680710 0.639976 -62.205156 2.380849 -40.734408 8.973511 -60.635360 10.510120 0.000000 0.000000 0.000000 0.735802 -0.036824 2.501888 4.556858 7.499202 7.366211 -0.164599 -0.211498 -2.022210 1.650188 -0.862344 63.684677 11.979511 22.383630 -4.037326 0.000000 0.000000 0.000000 
